<svg xmlns="http://www.w3.org/2000/svg" xmlns:xlink="http://www.w3.org/1999/xlink" xmlns:s="https://github.com/nturley/netlistsvg" width="397" height="303.5">
  <style>svg {
    stroke:#000;
    fill:none;
  }
  text {
    fill:#000;
    stroke:none;
    font-size:10px;
    font-weight: bold;
    font-family: "Courier New", monospace;
  }
  .nodelabel {
    text-anchor: middle;
  }
  .inputPortLabel {
    text-anchor: end;
  }
  .splitjoinBody {
    fill:#000;
  }</style>
  <g s:type="add" transform="translate(263.66666666666663,158)" s:width="25" s:height="25" id="cell_$add$mod_m_counter.sv:32$3">
    <s:alias val="$add"/>
    <circle r="12.5" cx="12.5" cy="12.5" class="cell_$add$mod_m_counter.sv:32$3"/>
    <line x1="7.5" x2="17.5" y1="12.5" y2="12.5" class="cell_$add$mod_m_counter.sv:32$3"/>
    <line x1="12.5" x2="12.5" y1="7.5" y2="17.5" class="cell_$add$mod_m_counter.sv:32$3"/>
    <g s:x="3" s:y="5" s:pid="A"/>
    <g s:x="3" s:y="20" s:pid="B"/>
    <g s:x="25" s:y="12.5" s:pid="Y"/>
  </g>
  <g s:type="eq" transform="translate(198.66666666666666,250.5)" s:width="25" s:height="25" id="cell_$eq$mod_m_counter.sv:30$2">
    <s:alias val="$eq"/>
    <circle r="12.5" cx="12.5" cy="12.5" class="cell_$eq$mod_m_counter.sv:30$2"/>
    <line x1="7.5" x2="17.5" y1="10" y2="10" class="cell_$eq$mod_m_counter.sv:30$2"/>
    <line x1="7.5" x2="17.5" y1="15" y2="15" class="cell_$eq$mod_m_counter.sv:30$2"/>
    <g s:x="3" s:y="5" s:pid="A"/>
    <g s:x="3" s:y="20" s:pid="B"/>
    <g s:x="25" s:y="12.5" s:pid="Y"/>
  </g>
  <g s:type="generic" transform="translate(102,152.5)" s:width="30" s:height="40" id="cell_$procdff$9">
    <text x="15" y="-4" class="nodelabel cell_$procdff$9" s:attribute="ref">$adff</text>
    <rect width="30" height="60" s:generic="body" class="cell_$procdff$9"/>
    <g transform="translate(0,10)" s:x="0" s:y="10" s:pid="in0" id="port_$procdff$9~ARST">
      <text x="-3" y="-4" class="inputPortLabel cell_$procdff$9">ARST</text>
    </g>
    <g transform="translate(0,30)" s:x="0" s:y="10" s:pid="in0" id="port_$procdff$9~CLK">
      <text x="-3" y="-4" class="inputPortLabel cell_$procdff$9">CLK</text>
    </g>
    <g transform="translate(0,50)" s:x="0" s:y="10" s:pid="in0" id="port_$procdff$9~D">
      <text x="-3" y="-4" class="inputPortLabel cell_$procdff$9">D</text>
    </g>
    <g transform="translate(30,10)" s:x="30" s:y="10" s:pid="out0" id="port_$procdff$9~Q">
      <text x="5" y="-4" style="fill:#000; stroke:none" class="cell_$procdff$9">Q</text>
    </g>
  </g>
  <g s:type="mux" transform="translate(327,213)" s:width="20" s:height="40" id="cell_$ternary$mod_m_counter.sv:30$4">
    <s:alias val="$pmux"/>
    <s:alias val="$mux"/>
    <s:alias val="$_MUX_"/>
    <path d="M0,0 L20,10 L20,30 L0,40 Z" class="cell_$ternary$mod_m_counter.sv:30$4"/>
    <g s:x="0" s:y="10" s:pid="A"/>
    <g s:x="0" s:y="30" s:pid="B"/>
    <g s:x="10" s:y="35" s:pid="S"/>
    <g s:x="20" s:y="20" s:pid="Y"/>
  </g>
  <g s:type="mux" transform="translate(265.33333333333337,98)" s:width="20" s:height="40" id="cell_$ternary$mod_m_counter.sv:38$6">
    <s:alias val="$pmux"/>
    <s:alias val="$mux"/>
    <s:alias val="$_MUX_"/>
    <path d="M0,0 L20,10 L20,30 L0,40 Z" class="cell_$ternary$mod_m_counter.sv:38$6"/>
    <g s:x="0" s:y="10" s:pid="A"/>
    <g s:x="0" s:y="30" s:pid="B"/>
    <g s:x="10" s:y="35" s:pid="S"/>
    <g s:x="20" s:y="20" s:pid="Y"/>
  </g>
  <g s:type="inputExt" transform="translate(12,173)" s:width="30" s:height="20" id="cell_clk">
    <text x="15" y="-4" class="nodelabel cell_clk" s:attribute="ref">clk</text>
    <s:alias val="$_inputExt_"/>
    <path d="M0,0 L0,20 L15,20 L30,10 L15,0 Z" class="cell_clk"/>
    <g s:x="28" s:y="10" s:pid="Y"/>
  </g>
  <g s:type="inputExt" transform="translate(12,108)" s:width="30" s:height="20" id="cell_reset">
    <text x="15" y="-4" class="nodelabel cell_reset" s:attribute="ref">reset</text>
    <s:alias val="$_inputExt_"/>
    <path d="M0,0 L0,20 L15,20 L30,10 L15,0 Z" class="cell_reset"/>
    <g s:x="28" s:y="10" s:pid="Y"/>
  </g>
  <g s:type="outputExt" transform="translate(327,108)" s:width="30" s:height="20" id="cell_max_tick">
    <text x="15" y="-4" class="nodelabel cell_max_tick" s:attribute="ref">max_tick</text>
    <s:alias val="$_outputExt_"/>
    <path d="M30,0 L30,20 L15,20 L0,10 L15,0 Z" class="cell_max_tick"/>
    <g s:x="0" s:y="10" s:pid="A"/>
  </g>
  <g s:type="outputExt" transform="translate(327,22)" s:width="30" s:height="20" id="cell_q">
    <text x="15" y="-4" class="nodelabel cell_q" s:attribute="ref">q</text>
    <s:alias val="$_outputExt_"/>
    <path d="M30,0 L30,20 L15,20 L0,10 L15,0 Z" class="cell_q"/>
    <g s:x="0" s:y="10" s:pid="A"/>
  </g>
  <g s:type="constant" transform="translate(197,118)" s:width="30" s:height="20" id="cell_1">
    <text x="15" y="-4" class="nodelabel cell_1" s:attribute="ref">1</text>
    <s:alias val="$_constant_"/>
    <rect width="30" height="20" class="cell_1"/>
    <g s:x="30" s:y="10" s:pid="Y"/>
  </g>
  <g s:type="constant" transform="translate(102,260.5)" s:width="30" s:height="20" id="cell_1001">
    <text x="15" y="-4" class="nodelabel cell_1001" s:attribute="ref">0x9</text>
    <s:alias val="$_constant_"/>
    <rect width="30" height="20" class="cell_1001"/>
    <g s:x="30" s:y="10" s:pid="Y"/>
  </g>
  <g s:type="constant" transform="translate(262,233)" s:width="30" s:height="20" id="cell_0000">
    <text x="15" y="-4" class="nodelabel cell_0000" s:attribute="ref">0x0</text>
    <s:alias val="$_constant_"/>
    <rect width="30" height="20" class="cell_0000"/>
    <g s:x="30" s:y="10" s:pid="Y"/>
  </g>
  <g s:type="constant" transform="translate(197,53)" s:width="30" s:height="20" id="cell_0">
    <text x="15" y="-4" class="nodelabel cell_0" s:attribute="ref">0</text>
    <s:alias val="$_constant_"/>
    <rect width="30" height="20" class="cell_0"/>
    <g s:x="30" s:y="10" s:pid="Y"/>
  </g>
  <line x1="133" x2="266.66666666666663" y1="163" y2="163" class="net_5,6,7,8"/>
  <line x1="133" x2="172" y1="163" y2="163" class="net_5,6,7,8"/>
  <line x1="172" x2="172" y1="163" y2="255.5" class="net_5,6,7,8"/>
  <circle cx="172" cy="163" r="2" style="fill:#000" class="net_5,6,7,8"/>
  <line x1="172" x2="201.66666666666666" y1="255.5" y2="255.5" class="net_5,6,7,8"/>
  <line x1="133" x2="172" y1="163" y2="163" class="net_5,6,7,8"/>
  <line x1="172" x2="172" y1="163" y2="32" class="net_5,6,7,8"/>
  <line x1="172" x2="327" y1="32" y2="32" class="net_5,6,7,8"/>
  <line x1="227" x2="247" y1="128" y2="128" class="net_18"/>
  <line x1="247" x2="247" y1="128" y2="178" class="net_18"/>
  <circle cx="247" cy="128" r="2" style="fill:#000" class="net_18"/>
  <line x1="247" x2="266.66666666666663" y1="178" y2="178" class="net_18"/>
  <line x1="227" x2="265.33333333333337" y1="128" y2="128" class="net_18"/>
  <line x1="132" x2="201.66666666666666" y1="270.5" y2="270.5" class="net_19,20,21,22"/>
  <line x1="40" x2="52" y1="118" y2="118" class="net_3"/>
  <line x1="52" x2="52" y1="118" y2="163" class="net_3"/>
  <line x1="52" x2="102" y1="163" y2="163" class="net_3"/>
  <line x1="40" x2="102" y1="183" y2="183" class="net_2"/>
  <line x1="347" x2="385" y1="233" y2="233" class="net_14,15,16,17"/>
  <line x1="385" x2="385" y1="233" y2="290.5" class="net_14,15,16,17"/>
  <line x1="385" x2="52" y1="290.5" y2="290.5" class="net_14,15,16,17"/>
  <line x1="52" x2="52" y1="290.5" y2="203" class="net_14,15,16,17"/>
  <line x1="52" x2="102" y1="203" y2="203" class="net_14,15,16,17"/>
  <line x1="288.66666666666663" x2="302" y1="170.5" y2="170.5" class="net_9,10,11,12"/>
  <line x1="302" x2="302" y1="170.5" y2="223" class="net_9,10,11,12"/>
  <line x1="302" x2="327" y1="223" y2="223" class="net_9,10,11,12"/>
  <line x1="292" x2="327" y1="243" y2="243" class="net_23,24,25,26"/>
  <line x1="223.66666666666666" x2="337" y1="263" y2="263" class="net_13"/>
  <line x1="337" x2="337" y1="263" y2="248" class="net_13"/>
  <line x1="223.66666666666666" x2="237" y1="263" y2="263" class="net_13"/>
  <line x1="237" x2="237" y1="263" y2="148" class="net_13"/>
  <line x1="237" x2="275.33333333333337" y1="148" y2="148" class="net_13"/>
  <circle cx="237" cy="263" r="2" style="fill:#000" class="net_13"/>
  <line x1="275.33333333333337" x2="275.33333333333337" y1="148" y2="133" class="net_13"/>
  <line x1="227" x2="237" y1="63" y2="63" class="net_27"/>
  <line x1="237" x2="237" y1="63" y2="108" class="net_27"/>
  <line x1="237" x2="265.33333333333337" y1="108" y2="108" class="net_27"/>
  <line x1="285.33333333333337" x2="327" y1="118" y2="118" class="net_4"/>
</svg>
