<svg xmlns="http://www.w3.org/2000/svg" xmlns:xlink="http://www.w3.org/1999/xlink" xmlns:s="https://github.com/nturley/netlistsvg" width="471" height="317">
  <style>svg {
    stroke:#000;
    fill:none;
  }
  text {
    fill:#000;
    stroke:none;
    font-size:10px;
    font-weight: bold;
    font-family: "Courier New", monospace;
  }
  .nodelabel {
    text-anchor: middle;
  }
  .inputPortLabel {
    text-anchor: end;
  }
  .splitjoinBody {
    fill:#000;
  }</style>
  <g s:type="add" transform="translate(254,87)" s:width="25" s:height="25" id="cell_$add$sign_mag_add.sv:34$4">
    <s:alias val="$add"/>
    <circle r="12.5" cx="12.5" cy="12.5" class="cell_$add$sign_mag_add.sv:34$4"/>
    <line x1="7.5" x2="17.5" y1="12.5" y2="12.5" class="cell_$add$sign_mag_add.sv:34$4"/>
    <line x1="12.5" x2="12.5" y1="7.5" y2="17.5" class="cell_$add$sign_mag_add.sv:34$4"/>
    <g s:x="3" s:y="5" s:pid="A"/>
    <g s:x="3" s:y="20" s:pid="B"/>
    <g s:x="25" s:y="12.5" s:pid="Y"/>
  </g>
  <g s:type="eq" transform="translate(254,147)" s:width="25" s:height="25" id="cell_$eq$sign_mag_add.sv:33$3">
    <s:alias val="$eq"/>
    <circle r="12.5" cx="12.5" cy="12.5" class="cell_$eq$sign_mag_add.sv:33$3"/>
    <line x1="7.5" x2="17.5" y1="10" y2="10" class="cell_$eq$sign_mag_add.sv:33$3"/>
    <line x1="7.5" x2="17.5" y1="15" y2="15" class="cell_$eq$sign_mag_add.sv:33$3"/>
    <g s:x="3" s:y="5" s:pid="A"/>
    <g s:x="3" s:y="20" s:pid="B"/>
    <g s:x="25" s:y="12.5" s:pid="Y"/>
  </g>
  <g s:type="gt" transform="translate(139,229)" s:width="25" s:height="25" id="cell_$gt$sign_mag_add.sv:21$2">
    <s:alias val="$gt"/>
    <circle r="12.5" cx="12.5" cy="12.5" class="cell_$gt$sign_mag_add.sv:21$2"/>
    <line x1="7.5" x2="17.5" y1="7.5" y2="12.5" class="cell_$gt$sign_mag_add.sv:21$2"/>
    <line x1="7.5" x2="17.5" y1="17.5" y2="12.5" class="cell_$gt$sign_mag_add.sv:21$2"/>
    <g s:x="3" s:y="5" s:pid="A"/>
    <g s:x="3" s:y="20" s:pid="B"/>
    <g s:x="25" s:y="12.5" s:pid="Y"/>
  </g>
  <g s:type="mux" transform="translate(314,254)" s:width="20" s:height="40" id="cell_$procmux$10">
    <s:alias val="$pmux"/>
    <s:alias val="$mux"/>
    <s:alias val="$_MUX_"/>
    <path d="M0,0 L20,10 L20,30 L0,40 Z" class="cell_$procmux$10"/>
    <g s:x="0" s:y="10" s:pid="A"/>
    <g s:x="0" s:y="30" s:pid="B"/>
    <g s:x="10" s:y="35" s:pid="S"/>
    <g s:x="20" s:y="20" s:pid="Y"/>
  </g>
  <g s:type="mux" transform="translate(199,87)" s:width="20" s:height="40" id="cell_$procmux$13">
    <s:alias val="$pmux"/>
    <s:alias val="$mux"/>
    <s:alias val="$_MUX_"/>
    <path d="M0,0 L20,10 L20,30 L0,40 Z" class="cell_$procmux$13"/>
    <g s:x="0" s:y="10" s:pid="A"/>
    <g s:x="0" s:y="30" s:pid="B"/>
    <g s:x="10" s:y="35" s:pid="S"/>
    <g s:x="20" s:y="20" s:pid="Y"/>
  </g>
  <g s:type="mux" transform="translate(199,12)" s:width="20" s:height="40" id="cell_$procmux$16">
    <s:alias val="$pmux"/>
    <s:alias val="$mux"/>
    <s:alias val="$_MUX_"/>
    <path d="M0,0 L20,10 L20,30 L0,40 Z" class="cell_$procmux$16"/>
    <g s:x="0" s:y="10" s:pid="A"/>
    <g s:x="0" s:y="30" s:pid="B"/>
    <g s:x="10" s:y="35" s:pid="S"/>
    <g s:x="20" s:y="20" s:pid="Y"/>
  </g>
  <g s:type="mux" transform="translate(314,29.5)" s:width="20" s:height="40" id="cell_$procmux$7">
    <s:alias val="$pmux"/>
    <s:alias val="$mux"/>
    <s:alias val="$_MUX_"/>
    <path d="M0,0 L20,10 L20,30 L0,40 Z" class="cell_$procmux$7"/>
    <g s:x="0" s:y="10" s:pid="A"/>
    <g s:x="0" s:y="30" s:pid="B"/>
    <g s:x="10" s:y="35" s:pid="S"/>
    <g s:x="20" s:y="20" s:pid="Y"/>
  </g>
  <g s:type="sub" transform="translate(254,27)" s:width="25" s:height="25" id="cell_$sub$sign_mag_add.sv:36$5">
    <s:alias val="$sub"/>
    <circle r="12.5" cx="12.5" cy="12.5" class="cell_$sub$sign_mag_add.sv:36$5"/>
    <line x1="7.5" x2="17.5" y1="12.5" y2="12.5" class="cell_$sub$sign_mag_add.sv:36$5"/>
    <g s:x="3" s:y="5" s:pid="A"/>
    <g s:x="3" s:y="20" s:pid="B"/>
    <g s:x="25" s:y="12.5" s:pid="Y"/>
  </g>
  <g s:type="inputExt" transform="translate(12,152)" s:width="30" s:height="20" id="cell_a">
    <text x="15" y="-4" class="nodelabel cell_a" s:attribute="ref">a</text>
    <s:alias val="$_inputExt_"/>
    <path d="M0,0 L0,20 L15,20 L30,10 L15,0 Z" class="cell_a"/>
    <g s:x="28" s:y="10" s:pid="Y"/>
  </g>
  <g s:type="inputExt" transform="translate(12,229)" s:width="30" s:height="20" id="cell_b">
    <text x="15" y="-4" class="nodelabel cell_b" s:attribute="ref">b</text>
    <s:alias val="$_inputExt_"/>
    <path d="M0,0 L0,20 L15,20 L30,10 L15,0 Z" class="cell_b"/>
    <g s:x="28" s:y="10" s:pid="Y"/>
  </g>
  <g s:type="outputExt" transform="translate(429,49.5)" s:width="30" s:height="20" id="cell_sum">
    <text x="15" y="-4" class="nodelabel cell_sum" s:attribute="ref">sum</text>
    <s:alias val="$_outputExt_"/>
    <path d="M30,0 L30,20 L15,20 L0,10 L15,0 Z" class="cell_sum"/>
    <g s:x="0" s:y="10" s:pid="A"/>
  </g>
  <g s:type="join" transform="translate(388,39)" s:width="4" s:height="40" id="cell_$join$,10,11,12,13,">
    <rect width="5" height="40" class="splitjoinBody" s:generic="body"/>
    <s:alias val="$_join_"/>
    <g s:x="5" s:y="20" s:pid="out"/>
    <g transform="translate(0,10)" s:x="0" s:y="10" s:pid="in0">
      <text x="-3" y="-4" class="inputPortLabel">0:2</text>
    </g>
    <g transform="translate(0,30)" s:x="0" s:y="10" s:pid="in0">
      <text x="-3" y="-4" class="inputPortLabel">3</text>
    </g>
  </g>
  <g s:type="split" transform="translate(77,141.5)" s:width="5" s:height="40" id="cell_$split$,2,3,4,5,">
    <rect width="5" height="40" class="splitjoinBody" s:generic="body"/>
    <s:alias val="$_split_"/>
    <g s:x="0" s:y="20" s:pid="in"/>
    <g transform="translate(4,10)" s:x="4" s:y="10" s:pid="out0">
      <text x="5" y="-4">3</text>
    </g>
    <g transform="translate(4,30)" s:x="4" s:y="10" s:pid="out0">
      <text x="5" y="-4">0:2</text>
    </g>
  </g>
  <g s:type="split" transform="translate(77,218.5)" s:width="5" s:height="40" id="cell_$split$,6,7,8,9,">
    <rect width="5" height="40" class="splitjoinBody" s:generic="body"/>
    <s:alias val="$_split_"/>
    <g s:x="0" s:y="20" s:pid="in"/>
    <g transform="translate(4,10)" s:x="4" s:y="10" s:pid="out0">
      <text x="5" y="-4">3</text>
    </g>
    <g transform="translate(4,30)" s:x="4" s:y="10" s:pid="out0">
      <text x="5" y="-4">0:2</text>
    </g>
  </g>
  <line x1="219" x2="239" y1="32" y2="32" class="net_14,15,16"/>
  <line x1="239" x2="239" y1="32" y2="92" class="net_14,15,16"/>
  <circle cx="239" cy="32" r="2" style="fill:#000" class="net_14,15,16"/>
  <line x1="239" x2="257" y1="92" y2="92" class="net_14,15,16"/>
  <line x1="219" x2="257" y1="32" y2="32" class="net_14,15,16"/>
  <line x1="219" x2="257" y1="107" y2="107" class="net_17,18,19"/>
  <line x1="219" x2="229" y1="107" y2="107" class="net_17,18,19"/>
  <line x1="229" x2="229" y1="107" y2="47" class="net_17,18,19"/>
  <circle cx="229" cy="107" r="2" style="fill:#000" class="net_17,18,19"/>
  <line x1="229" x2="257" y1="47" y2="47" class="net_17,18,19"/>
  <line x1="82" x2="257" y1="152" y2="152" class="net_5"/>
  <line x1="82" x2="129" y1="152" y2="152" class="net_5"/>
  <line x1="129" x2="129" y1="152" y2="284" class="net_5"/>
  <circle cx="129" cy="152" r="2" style="fill:#000" class="net_5"/>
  <line x1="129" x2="314" y1="284" y2="284" class="net_5"/>
  <line x1="82" x2="99" y1="229" y2="229" class="net_9"/>
  <line x1="99" x2="99" y1="229" y2="264" class="net_9"/>
  <line x1="99" x2="229" y1="264" y2="264" class="net_9"/>
  <line x1="229" x2="229" y1="264" y2="167" class="net_9"/>
  <circle cx="229" cy="264" r="2" style="fill:#000" class="net_9"/>
  <line x1="229" x2="257" y1="167" y2="167" class="net_9"/>
  <line x1="82" x2="99" y1="229" y2="229" class="net_9"/>
  <line x1="99" x2="99" y1="229" y2="264" class="net_9"/>
  <line x1="99" x2="314" y1="264" y2="264" class="net_9"/>
  <line x1="82" x2="119" y1="172" y2="172" class="net_2,3,4"/>
  <line x1="119" x2="119" y1="172" y2="234" class="net_2,3,4"/>
  <circle cx="119" cy="172" r="2" style="fill:#000" class="net_2,3,4"/>
  <line x1="119" x2="142" y1="234" y2="234" class="net_2,3,4"/>
  <line x1="82" x2="119" y1="172" y2="172" class="net_2,3,4"/>
  <line x1="119" x2="119" y1="172" y2="97" class="net_2,3,4"/>
  <line x1="119" x2="199" y1="97" y2="97" class="net_2,3,4"/>
  <line x1="82" x2="119" y1="172" y2="172" class="net_2,3,4"/>
  <line x1="119" x2="119" y1="172" y2="97" class="net_2,3,4"/>
  <line x1="119" x2="174" y1="97" y2="97" class="net_2,3,4"/>
  <line x1="174" x2="174" y1="97" y2="42" class="net_2,3,4"/>
  <circle cx="174" cy="97" r="2" style="fill:#000" class="net_2,3,4"/>
  <line x1="174" x2="199" y1="42" y2="42" class="net_2,3,4"/>
  <line x1="82" x2="142" y1="249" y2="249" class="net_6,7,8"/>
  <line x1="82" x2="109" y1="249" y2="249" class="net_6,7,8"/>
  <line x1="109" x2="109" y1="249" y2="117" class="net_6,7,8"/>
  <circle cx="109" cy="249" r="2" style="fill:#000" class="net_6,7,8"/>
  <circle cx="109" cy="117" r="2" style="fill:#000" class="net_6,7,8"/>
  <line x1="109" x2="199" y1="117" y2="117" class="net_6,7,8"/>
  <line x1="82" x2="109" y1="249" y2="249" class="net_6,7,8"/>
  <line x1="109" x2="109" y1="249" y2="22" class="net_6,7,8"/>
  <line x1="109" x2="199" y1="22" y2="22" class="net_6,7,8"/>
  <line x1="164" x2="184" y1="241.5" y2="241.5" class="net_24"/>
  <line x1="184" x2="184" y1="241.5" y2="304" class="net_24"/>
  <line x1="184" x2="324" y1="304" y2="304" class="net_24"/>
  <circle cx="184" cy="241.5" r="2" style="fill:#000" class="net_24"/>
  <line x1="324" x2="324" y1="304" y2="289" class="net_24"/>
  <line x1="164" x2="184" y1="241.5" y2="241.5" class="net_24"/>
  <line x1="184" x2="184" y1="241.5" y2="137" class="net_24"/>
  <line x1="184" x2="209" y1="137" y2="137" class="net_24"/>
  <circle cx="184" cy="137" r="2" style="fill:#000" class="net_24"/>
  <line x1="209" x2="209" y1="137" y2="122" class="net_24"/>
  <line x1="164" x2="184" y1="241.5" y2="241.5" class="net_24"/>
  <line x1="184" x2="184" y1="241.5" y2="77" class="net_24"/>
  <line x1="184" x2="209" y1="77" y2="77" class="net_24"/>
  <line x1="209" x2="209" y1="77" y2="47" class="net_24"/>
  <line x1="279" x2="314" y1="39.5" y2="39.5" class="net_25,26,27"/>
  <line x1="279" x2="289" y1="99.5" y2="99.5" class="net_20,21,22"/>
  <line x1="289" x2="289" y1="99.5" y2="59.5" class="net_20,21,22"/>
  <line x1="289" x2="314" y1="59.5" y2="59.5" class="net_20,21,22"/>
  <line x1="279" x2="324" y1="159.5" y2="159.5" class="net_23"/>
  <line x1="324" x2="324" y1="159.5" y2="64.5" class="net_23"/>
  <line x1="394" x2="429" y1="59.5" y2="59.5" class="net_10,11,12,13"/>
  <line x1="334" x2="388" y1="49.5" y2="49.5" class="net_10,11,12"/>
  <line x1="334" x2="344" y1="274" y2="274" class="net_13"/>
  <line x1="344" x2="344" y1="274" y2="69.5" class="net_13"/>
  <line x1="344" x2="388" y1="69.5" y2="69.5" class="net_13"/>
  <line x1="40" x2="77" y1="162" y2="162" class="net_2,3,4,5"/>
  <line x1="40" x2="77" y1="239" y2="239" class="net_6,7,8,9"/>
</svg>
