<svg xmlns="http://www.w3.org/2000/svg" xmlns:xlink="http://www.w3.org/1999/xlink" xmlns:s="https://github.com/nturley/netlistsvg" width="545" height="622.5">
  <style>svg {
    stroke:#000;
    fill:none;
  }
  text {
    fill:#000;
    stroke:none;
    font-size:10px;
    font-weight: bold;
    font-family: "Courier New", monospace;
  }
  .nodelabel {
    text-anchor: middle;
  }
  .inputPortLabel {
    text-anchor: end;
  }
  .splitjoinBody {
    fill:#000;
  }</style>
  <g s:type="add" transform="translate(269.6666666666667,327)" s:width="25" s:height="25" id="cell_$add$univ_bin_counter.sv:42$4">
    <s:alias val="$add"/>
    <circle r="12.5" cx="12.5" cy="12.5" class="cell_$add$univ_bin_counter.sv:42$4"/>
    <line x1="7.5" x2="17.5" y1="12.5" y2="12.5" class="cell_$add$univ_bin_counter.sv:42$4"/>
    <line x1="12.5" x2="12.5" y1="7.5" y2="17.5" class="cell_$add$univ_bin_counter.sv:42$4"/>
    <g s:x="3" s:y="5" s:pid="A"/>
    <g s:x="3" s:y="20" s:pid="B"/>
    <g s:x="25" s:y="12.5" s:pid="Y"/>
  </g>
  <g s:type="eq" transform="translate(334.6666666666667,88)" s:width="25" s:height="25" id="cell_$eq$univ_bin_counter.sv:55$8">
    <s:alias val="$eq"/>
    <circle r="12.5" cx="12.5" cy="12.5" class="cell_$eq$univ_bin_counter.sv:55$8"/>
    <line x1="7.5" x2="17.5" y1="10" y2="10" class="cell_$eq$univ_bin_counter.sv:55$8"/>
    <line x1="7.5" x2="17.5" y1="15" y2="15" class="cell_$eq$univ_bin_counter.sv:55$8"/>
    <g s:x="3" s:y="5" s:pid="A"/>
    <g s:x="3" s:y="20" s:pid="B"/>
    <g s:x="25" s:y="12.5" s:pid="Y"/>
  </g>
  <g s:type="not" transform="translate(333,206.5)" s:width="30" s:height="20" id="cell_$eq$univ_bin_counter.sv:60$10">
    <s:alias val="$_NOT_"/>
    <s:alias val="$not"/>
    <s:alias val="$logic_not"/>
    <path d="M0,0 L0,20 L20,10 Z" class="cell_$eq$univ_bin_counter.sv:60$10"/>
    <circle cx="23" cy="10" r="3" class="cell_$eq$univ_bin_counter.sv:60$10"/>
    <g s:x="0" s:y="10" s:pid="A"/>
    <g s:x="25" s:y="10" s:pid="Y"/>
  </g>
  <g s:type="and" transform="translate(268,387)" s:width="30" s:height="25" id="cell_$logic_and$univ_bin_counter.sv:41$3">
    <s:alias val="$and"/>
    <s:alias val="$logic_and"/>
    <s:alias val="$_AND_"/>
    <path d="M0,0 L0,25 L15,25 A15 12.5 0 0 0 15,0 Z" class="cell_$logic_and$univ_bin_counter.sv:41$3"/>
    <g s:x="0" s:y="5" s:pid="A"/>
    <g s:x="0" s:y="20" s:pid="B"/>
    <g s:x="30" s:y="12.5" s:pid="Y"/>
  </g>
  <g s:type="and" transform="translate(203,302)" s:width="30" s:height="25" id="cell_$logic_and$univ_bin_counter.sv:44$6">
    <s:alias val="$and"/>
    <s:alias val="$logic_and"/>
    <s:alias val="$_AND_"/>
    <path d="M0,0 L0,25 L15,25 A15 12.5 0 0 0 15,0 Z" class="cell_$logic_and$univ_bin_counter.sv:44$6"/>
    <g s:x="0" s:y="5" s:pid="A"/>
    <g s:x="0" s:y="20" s:pid="B"/>
    <g s:x="30" s:y="12.5" s:pid="Y"/>
  </g>
  <g s:type="not" transform="translate(107.5,312)" s:width="30" s:height="20" id="cell_$logic_not$univ_bin_counter.sv:44$5">
    <s:alias val="$_NOT_"/>
    <s:alias val="$not"/>
    <s:alias val="$logic_not"/>
    <path d="M0,0 L0,20 L20,10 Z" class="cell_$logic_not$univ_bin_counter.sv:44$5"/>
    <circle cx="23" cy="10" r="3" class="cell_$logic_not$univ_bin_counter.sv:44$5"/>
    <g s:x="0" s:y="10" s:pid="A"/>
    <g s:x="25" s:y="10" s:pid="Y"/>
  </g>
  <g s:type="generic" transform="translate(102,206)" s:width="30" s:height="40" id="cell_$procdff$44">
    <text x="15" y="-4" class="nodelabel cell_$procdff$44" s:attribute="ref">$adff</text>
    <rect width="30" height="60" s:generic="body" class="cell_$procdff$44"/>
    <g transform="translate(0,10)" s:x="0" s:y="10" s:pid="in0" id="port_$procdff$44~ARST">
      <text x="-3" y="-4" class="inputPortLabel cell_$procdff$44">ARST</text>
    </g>
    <g transform="translate(0,30)" s:x="0" s:y="10" s:pid="in0" id="port_$procdff$44~CLK">
      <text x="-3" y="-4" class="inputPortLabel cell_$procdff$44">CLK</text>
    </g>
    <g transform="translate(0,50)" s:x="0" s:y="10" s:pid="in0" id="port_$procdff$44~D">
      <text x="-3" y="-4" class="inputPortLabel cell_$procdff$44">D</text>
    </g>
    <g transform="translate(30,10)" s:x="30" s:y="10" s:pid="out0" id="port_$procdff$44~Q">
      <text x="5" y="-4" style="fill:#000; stroke:none" class="cell_$procdff$44">Q</text>
    </g>
  </g>
  <g s:type="mux" transform="translate(271.3333333333333,227.5)" s:width="20" s:height="40" id="cell_$procmux$13">
    <s:alias val="$pmux"/>
    <s:alias val="$mux"/>
    <s:alias val="$_MUX_"/>
    <path d="M0,0 L20,10 L20,30 L0,40 Z" class="cell_$procmux$13"/>
    <g s:x="0" s:y="10" s:pid="A"/>
    <g s:x="0" s:y="30" s:pid="B"/>
    <g s:x="10" s:y="35" s:pid="S"/>
    <g s:x="20" s:y="20" s:pid="Y"/>
  </g>
  <g s:type="mux" transform="translate(336.3333333333333,309.5)" s:width="20" s:height="40" id="cell_$procmux$25">
    <s:alias val="$pmux"/>
    <s:alias val="$mux"/>
    <s:alias val="$_MUX_"/>
    <path d="M0,0 L20,10 L20,30 L0,40 Z" class="cell_$procmux$25"/>
    <g s:x="0" s:y="10" s:pid="A"/>
    <g s:x="0" s:y="30" s:pid="B"/>
    <g s:x="10" s:y="35" s:pid="S"/>
    <g s:x="20" s:y="20" s:pid="Y"/>
  </g>
  <g s:type="mux" transform="translate(405.3333333333333,399.5)" s:width="20" s:height="40" id="cell_$procmux$34">
    <s:alias val="$pmux"/>
    <s:alias val="$mux"/>
    <s:alias val="$_MUX_"/>
    <path d="M0,0 L20,10 L20,30 L0,40 Z" class="cell_$procmux$34"/>
    <g s:x="0" s:y="10" s:pid="A"/>
    <g s:x="0" s:y="30" s:pid="B"/>
    <g s:x="10" s:y="35" s:pid="S"/>
    <g s:x="20" s:y="20" s:pid="Y"/>
  </g>
  <g s:type="mux" transform="translate(475,494.5)" s:width="20" s:height="40" id="cell_$procmux$40">
    <s:alias val="$pmux"/>
    <s:alias val="$mux"/>
    <s:alias val="$_MUX_"/>
    <path d="M0,0 L20,10 L20,30 L0,40 Z" class="cell_$procmux$40"/>
    <g s:x="0" s:y="10" s:pid="A"/>
    <g s:x="0" s:y="30" s:pid="B"/>
    <g s:x="10" s:y="35" s:pid="S"/>
    <g s:x="20" s:y="20" s:pid="Y"/>
  </g>
  <g s:type="sub" transform="translate(204.66666666666666,245)" s:width="25" s:height="25" id="cell_$sub$univ_bin_counter.sv:45$7">
    <s:alias val="$sub"/>
    <circle r="12.5" cx="12.5" cy="12.5" class="cell_$sub$univ_bin_counter.sv:45$7"/>
    <line x1="7.5" x2="17.5" y1="12.5" y2="12.5" class="cell_$sub$univ_bin_counter.sv:45$7"/>
    <g s:x="3" s:y="5" s:pid="A"/>
    <g s:x="3" s:y="20" s:pid="B"/>
    <g s:x="25" s:y="12.5" s:pid="Y"/>
  </g>
  <g s:type="mux" transform="translate(405.3333333333333,33)" s:width="20" s:height="40" id="cell_$ternary$univ_bin_counter.sv:55$9">
    <s:alias val="$pmux"/>
    <s:alias val="$mux"/>
    <s:alias val="$_MUX_"/>
    <path d="M0,0 L20,10 L20,30 L0,40 Z" class="cell_$ternary$univ_bin_counter.sv:55$9"/>
    <g s:x="0" s:y="10" s:pid="A"/>
    <g s:x="0" s:y="30" s:pid="B"/>
    <g s:x="10" s:y="35" s:pid="S"/>
    <g s:x="20" s:y="20" s:pid="Y"/>
  </g>
  <g s:type="mux" transform="translate(405.3333333333333,110.5)" s:width="20" s:height="40" id="cell_$ternary$univ_bin_counter.sv:60$11">
    <s:alias val="$pmux"/>
    <s:alias val="$mux"/>
    <s:alias val="$_MUX_"/>
    <path d="M0,0 L20,10 L20,30 L0,40 Z" class="cell_$ternary$univ_bin_counter.sv:60$11"/>
    <g s:x="0" s:y="10" s:pid="A"/>
    <g s:x="0" s:y="30" s:pid="B"/>
    <g s:x="10" s:y="35" s:pid="S"/>
    <g s:x="20" s:y="20" s:pid="Y"/>
  </g>
  <g s:type="inputExt" transform="translate(12,226.5)" s:width="30" s:height="20" id="cell_clk">
    <text x="15" y="-4" class="nodelabel cell_clk" s:attribute="ref">clk</text>
    <s:alias val="$_inputExt_"/>
    <path d="M0,0 L0,20 L15,20 L30,10 L15,0 Z" class="cell_clk"/>
    <g s:x="28" s:y="10" s:pid="Y"/>
  </g>
  <g s:type="inputExt" transform="translate(12,161.5)" s:width="30" s:height="20" id="cell_reset">
    <text x="15" y="-4" class="nodelabel cell_reset" s:attribute="ref">reset</text>
    <s:alias val="$_inputExt_"/>
    <path d="M0,0 L0,20 L15,20 L30,10 L15,0 Z" class="cell_reset"/>
    <g s:x="28" s:y="10" s:pid="Y"/>
  </g>
  <g s:type="inputExt" transform="translate(398,579.5)" s:width="30" s:height="20" id="cell_syn_clr">
    <text x="15" y="-4" class="nodelabel cell_syn_clr" s:attribute="ref">syn_clr</text>
    <s:alias val="$_inputExt_"/>
    <path d="M0,0 L0,20 L15,20 L30,10 L15,0 Z" class="cell_syn_clr"/>
    <g s:x="28" s:y="10" s:pid="Y"/>
  </g>
  <g s:type="inputExt" transform="translate(333,484.5)" s:width="30" s:height="20" id="cell_load">
    <text x="15" y="-4" class="nodelabel cell_load" s:attribute="ref">load</text>
    <s:alias val="$_inputExt_"/>
    <path d="M0,0 L0,20 L15,20 L30,10 L15,0 Z" class="cell_load"/>
    <g s:x="28" s:y="10" s:pid="Y"/>
  </g>
  <g s:type="inputExt" transform="translate(102,377)" s:width="30" s:height="20" id="cell_en">
    <text x="15" y="-4" class="nodelabel cell_en" s:attribute="ref">en</text>
    <s:alias val="$_inputExt_"/>
    <path d="M0,0 L0,20 L15,20 L30,10 L15,0 Z" class="cell_en"/>
    <g s:x="28" s:y="10" s:pid="Y"/>
  </g>
  <g s:type="inputExt" transform="translate(12,397)" s:width="30" s:height="20" id="cell_up">
    <text x="15" y="-4" class="nodelabel cell_up" s:attribute="ref">up</text>
    <s:alias val="$_inputExt_"/>
    <path d="M0,0 L0,20 L15,20 L30,10 L15,0 Z" class="cell_up"/>
    <g s:x="28" s:y="10" s:pid="Y"/>
  </g>
  <g s:type="inputExt" transform="translate(333,419.5)" s:width="30" s:height="20" id="cell_d">
    <text x="15" y="-4" class="nodelabel cell_d" s:attribute="ref">d</text>
    <s:alias val="$_inputExt_"/>
    <path d="M0,0 L0,20 L15,20 L30,10 L15,0 Z" class="cell_d"/>
    <g s:x="28" s:y="10" s:pid="Y"/>
  </g>
  <g s:type="outputExt" transform="translate(475,43)" s:width="30" s:height="20" id="cell_max_tick">
    <text x="15" y="-4" class="nodelabel cell_max_tick" s:attribute="ref">max_tick</text>
    <s:alias val="$_outputExt_"/>
    <path d="M30,0 L30,20 L15,20 L0,10 L15,0 Z" class="cell_max_tick"/>
    <g s:x="0" s:y="10" s:pid="A"/>
  </g>
  <g s:type="outputExt" transform="translate(475,120.5)" s:width="30" s:height="20" id="cell_min_tick">
    <text x="15" y="-4" class="nodelabel cell_min_tick" s:attribute="ref">min_tick</text>
    <s:alias val="$_outputExt_"/>
    <path d="M30,0 L30,20 L15,20 L0,10 L15,0 Z" class="cell_min_tick"/>
    <g s:x="0" s:y="10" s:pid="A"/>
  </g>
  <g s:type="outputExt" transform="translate(475,185.5)" s:width="30" s:height="20" id="cell_q">
    <text x="15" y="-4" class="nodelabel cell_q" s:attribute="ref">q</text>
    <s:alias val="$_outputExt_"/>
    <path d="M30,0 L30,20 L15,20 L0,10 L15,0 Z" class="cell_q"/>
    <g s:x="0" s:y="10" s:pid="A"/>
  </g>
  <g s:type="constant" transform="translate(102,130.5)" s:width="30" s:height="20" id="cell_1">
    <text x="15" y="-4" class="nodelabel cell_1" s:attribute="ref">1</text>
    <s:alias val="$_constant_"/>
    <rect width="30" height="20" class="cell_1"/>
    <g s:x="30" s:y="10" s:pid="Y"/>
  </g>
  <g s:type="constant" transform="translate(268,98)" s:width="30" s:height="20" id="cell_11111111">
    <text x="15" y="-4" class="nodelabel cell_11111111" s:attribute="ref">0xff</text>
    <s:alias val="$_constant_"/>
    <rect width="30" height="20" class="cell_11111111"/>
    <g s:x="30" s:y="10" s:pid="Y"/>
  </g>
  <g s:type="constant" transform="translate(398,514.5)" s:width="30" s:height="20" id="cell_00000000">
    <text x="15" y="-4" class="nodelabel cell_00000000" s:attribute="ref">0x0</text>
    <s:alias val="$_constant_"/>
    <rect width="30" height="20" class="cell_00000000"/>
    <g s:x="30" s:y="10" s:pid="Y"/>
  </g>
  <g s:type="constant" transform="translate(333,33)" s:width="30" s:height="20" id="cell_0">
    <text x="15" y="-4" class="nodelabel cell_0" s:attribute="ref">0</text>
    <s:alias val="$_constant_"/>
    <rect width="30" height="20" class="cell_0"/>
    <g s:x="30" s:y="10" s:pid="Y"/>
  </g>
  <line x1="133" x2="188" y1="216.5" y2="216.5" class="net_18,19,20,21,22,23,24,25"/>
  <line x1="188" x2="188" y1="216.5" y2="280" class="net_18,19,20,21,22,23,24,25"/>
  <line x1="188" x2="253" y1="280" y2="280" class="net_18,19,20,21,22,23,24,25"/>
  <line x1="253" x2="253" y1="280" y2="332" class="net_18,19,20,21,22,23,24,25"/>
  <circle cx="188" cy="216.5" r="2" style="fill:#000" class="net_18,19,20,21,22,23,24,25"/>
  <line x1="253" x2="272.6666666666667" y1="332" y2="332" class="net_18,19,20,21,22,23,24,25"/>
  <line x1="133" x2="188" y1="216.5" y2="216.5" class="net_18,19,20,21,22,23,24,25"/>
  <line x1="188" x2="188" y1="216.5" y2="77" class="net_18,19,20,21,22,23,24,25"/>
  <line x1="188" x2="308" y1="77" y2="77" class="net_18,19,20,21,22,23,24,25"/>
  <line x1="308" x2="308" y1="77" y2="93" class="net_18,19,20,21,22,23,24,25"/>
  <line x1="308" x2="337.6666666666667" y1="93" y2="93" class="net_18,19,20,21,22,23,24,25"/>
  <line x1="133" x2="333" y1="216.5" y2="216.5" class="net_18,19,20,21,22,23,24,25"/>
  <line x1="133" x2="243" y1="216.5" y2="216.5" class="net_18,19,20,21,22,23,24,25"/>
  <line x1="243" x2="243" y1="216.5" y2="237.5" class="net_18,19,20,21,22,23,24,25"/>
  <circle cx="243" cy="216.5" r="2" style="fill:#000" class="net_18,19,20,21,22,23,24,25"/>
  <line x1="243" x2="271.3333333333333" y1="237.5" y2="237.5" class="net_18,19,20,21,22,23,24,25"/>
  <line x1="133" x2="188" y1="216.5" y2="216.5" class="net_18,19,20,21,22,23,24,25"/>
  <line x1="188" x2="188" y1="216.5" y2="250" class="net_18,19,20,21,22,23,24,25"/>
  <circle cx="188" cy="250" r="2" style="fill:#000" class="net_18,19,20,21,22,23,24,25"/>
  <line x1="188" x2="207.66666666666666" y1="250" y2="250" class="net_18,19,20,21,22,23,24,25"/>
  <line x1="133" x2="308" y1="216.5" y2="216.5" class="net_18,19,20,21,22,23,24,25"/>
  <line x1="308" x2="308" y1="216.5" y2="195.5" class="net_18,19,20,21,22,23,24,25"/>
  <circle cx="308" cy="216.5" r="2" style="fill:#000" class="net_18,19,20,21,22,23,24,25"/>
  <line x1="308" x2="475" y1="195.5" y2="195.5" class="net_18,19,20,21,22,23,24,25"/>
  <line x1="132" x2="178" y1="140.5" y2="140.5" class="net_79"/>
  <line x1="178" x2="178" y1="140.5" y2="291" class="net_79"/>
  <line x1="178" x2="243" y1="291" y2="291" class="net_79"/>
  <line x1="243" x2="243" y1="291" y2="347" class="net_79"/>
  <circle cx="178" cy="140.5" r="2" style="fill:#000" class="net_79"/>
  <line x1="243" x2="272.6666666666667" y1="347" y2="347" class="net_79"/>
  <line x1="132" x2="178" y1="140.5" y2="140.5" class="net_79"/>
  <line x1="178" x2="178" y1="140.5" y2="265" class="net_79"/>
  <circle cx="178" cy="265" r="2" style="fill:#000" class="net_79"/>
  <line x1="178" x2="207.66666666666666" y1="265" y2="265" class="net_79"/>
  <line x1="132" x2="178" y1="140.5" y2="140.5" class="net_79"/>
  <line x1="178" x2="178" y1="140.5" y2="12" class="net_79"/>
  <line x1="178" x2="383" y1="12" y2="12" class="net_79"/>
  <line x1="383" x2="383" y1="12" y2="63" class="net_79"/>
  <line x1="383" x2="405.3333333333333" y1="63" y2="63" class="net_79"/>
  <line x1="132" x2="405.3333333333333" y1="140.5" y2="140.5" class="net_79"/>
  <line x1="298" x2="337.6666666666667" y1="108" y2="108" class="net_80,81,82,83,84,85,86,87"/>
  <line x1="130" x2="243" y1="387" y2="387" class="net_6"/>
  <line x1="243" x2="243" y1="387" y2="392" class="net_6"/>
  <line x1="243" x2="268" y1="392" y2="392" class="net_6"/>
  <line x1="130" x2="178" y1="387" y2="387" class="net_6"/>
  <line x1="178" x2="178" y1="387" y2="307" class="net_6"/>
  <circle cx="178" cy="387" r="2" style="fill:#000" class="net_6"/>
  <line x1="178" x2="203" y1="307" y2="307" class="net_6"/>
  <line x1="40" x2="268" y1="407" y2="407" class="net_7"/>
  <line x1="40" x2="62" y1="407" y2="407" class="net_7"/>
  <line x1="62" x2="62" y1="407" y2="322" class="net_7"/>
  <circle cx="62" cy="407" r="2" style="fill:#000" class="net_7"/>
  <line x1="62" x2="107.5" y1="322" y2="322" class="net_7"/>
  <line x1="132.5" x2="203" y1="322" y2="322" class="net_37"/>
  <line x1="40" x2="52" y1="171.5" y2="171.5" class="net_3"/>
  <line x1="52" x2="52" y1="171.5" y2="216.5" class="net_3"/>
  <line x1="52" x2="102" y1="216.5" y2="216.5" class="net_3"/>
  <line x1="40" x2="102" y1="236.5" y2="236.5" class="net_2"/>
  <line x1="495" x2="533" y1="514.5" y2="514.5" class="net_39,40,41,42,43,44,45,46"/>
  <line x1="533" x2="533" y1="514.5" y2="609.5" class="net_39,40,41,42,43,44,45,46"/>
  <line x1="533" x2="52" y1="609.5" y2="609.5" class="net_39,40,41,42,43,44,45,46"/>
  <line x1="52" x2="52" y1="609.5" y2="256.5" class="net_39,40,41,42,43,44,45,46"/>
  <line x1="52" x2="102" y1="256.5" y2="256.5" class="net_39,40,41,42,43,44,45,46"/>
  <line x1="229.66666666666666" x2="271.3333333333333" y1="257.5" y2="257.5" class="net_47,48,49,50,51,52,53,54"/>
  <line x1="233" x2="281.3333333333333" y1="314.5" y2="314.5" class="net_38"/>
  <line x1="281.3333333333333" x2="281.3333333333333" y1="314.5" y2="262.5" class="net_38"/>
  <line x1="291.3333333333333" x2="308" y1="247.5" y2="247.5" class="net_55,56,57,58,59,60,61,62"/>
  <line x1="308" x2="308" y1="247.5" y2="319.5" class="net_55,56,57,58,59,60,61,62"/>
  <line x1="308" x2="336.3333333333333" y1="319.5" y2="319.5" class="net_55,56,57,58,59,60,61,62"/>
  <line x1="294.6666666666667" x2="336.3333333333333" y1="339.5" y2="339.5" class="net_26,27,28,29,30,31,32,33"/>
  <line x1="298" x2="346.3333333333333" y1="399.5" y2="399.5" class="net_36"/>
  <line x1="346.3333333333333" x2="346.3333333333333" y1="399.5" y2="344.5" class="net_36"/>
  <line x1="356.3333333333333" x2="373" y1="329.5" y2="329.5" class="net_63,64,65,66,67,68,69,70"/>
  <line x1="373" x2="373" y1="329.5" y2="409.5" class="net_63,64,65,66,67,68,69,70"/>
  <line x1="373" x2="405.3333333333333" y1="409.5" y2="409.5" class="net_63,64,65,66,67,68,69,70"/>
  <line x1="361" x2="405.3333333333333" y1="429.5" y2="429.5" class="net_8,9,10,11,12,13,14,15"/>
  <line x1="361" x2="415.3333333333333" y1="494.5" y2="494.5" class="net_5"/>
  <line x1="415.3333333333333" x2="415.3333333333333" y1="494.5" y2="434.5" class="net_5"/>
  <line x1="425.3333333333333" x2="450" y1="419.5" y2="419.5" class="net_71,72,73,74,75,76,77,78"/>
  <line x1="450" x2="450" y1="419.5" y2="504.5" class="net_71,72,73,74,75,76,77,78"/>
  <line x1="450" x2="475" y1="504.5" y2="504.5" class="net_71,72,73,74,75,76,77,78"/>
  <line x1="428" x2="475" y1="524.5" y2="524.5" class="net_88,89,90,91,92,93,94,95"/>
  <line x1="426" x2="485" y1="589.5" y2="589.5" class="net_4"/>
  <line x1="485" x2="485" y1="589.5" y2="529.5" class="net_4"/>
  <line x1="363" x2="405.3333333333333" y1="43" y2="43" class="net_97"/>
  <line x1="363" x2="373" y1="43" y2="43" class="net_97"/>
  <line x1="373" x2="373" y1="43" y2="120.5" class="net_97"/>
  <circle cx="373" cy="43" r="2" style="fill:#000" class="net_97"/>
  <line x1="373" x2="405.3333333333333" y1="120.5" y2="120.5" class="net_97"/>
  <line x1="359.6666666666667" x2="415.3333333333333" y1="100.5" y2="100.5" class="net_34"/>
  <line x1="415.3333333333333" x2="415.3333333333333" y1="100.5" y2="68" class="net_34"/>
  <line x1="358" x2="415.3333333333333" y1="216.5" y2="216.5" class="net_35"/>
  <line x1="415.3333333333333" x2="415.3333333333333" y1="216.5" y2="145.5" class="net_35"/>
  <line x1="425.3333333333333" x2="475" y1="53" y2="53" class="net_16"/>
  <line x1="425.3333333333333" x2="475" y1="130.5" y2="130.5" class="net_17"/>
</svg>
